<?xml version="1.0" encoding="iso-8859-1"?>
<!-- Uploaded to: SVG Repo, www.svgrepo.com, Generator: SVG Repo Mixer Tools -->
<!DOCTYPE svg PUBLIC "-//W3C//DTD SVG 1.1//EN" "http://www.w3.org/Graphics/SVG/1.1/DTD/svg11.dtd">
<svg fill="#000000" version="1.1" id="Capa_1" xmlns="http://www.w3.org/2000/svg" xmlns:xlink="http://www.w3.org/1999/xlink" 
	 width="800px" height="800px" viewBox="0 0 41.263 41.264"
	 xml:space="preserve">
<g>
	<g>
		<rect x="6.642" y="12.52" width="27.979" height="1.667"/>
		<rect x="6.642" y="18.52" width="27.979" height="1.667"/>
		<path d="M9.993,30.508l-4.051-2.089c0.006-0.036,0.021-0.068,0.021-0.107V10.645c0.002-0.46-0.371-0.833-0.831-0.833
			s-0.833,0.373-0.833,0.833v17.667c0,0.038,0.018,0.07,0.021,0.105l-4.05,2.09c-0.245,0.127-0.341,0.43-0.215,0.674
			c0.126,0.246,0.426,0.342,0.674,0.215l4.373-2.256c0.012,0,0.02,0.006,0.029,0.006c0.012,0,0.02-0.006,0.03-0.006l4.373,2.256
			c0.073,0.039,0.151,0.057,0.229,0.057c0.181,0,0.355-0.1,0.444-0.271C10.334,30.936,10.239,30.635,9.993,30.508z"/>
		<path d="M40.994,30.508l-4.051-2.089c0.006-0.036,0.021-0.068,0.021-0.106V10.645c0-0.46-0.373-0.833-0.833-0.833
			s-0.833,0.373-0.833,0.833v17.667c0,0.038,0.019,0.07,0.021,0.105l-4.05,2.09c-0.245,0.127-0.341,0.43-0.215,0.674
			c0.126,0.246,0.426,0.342,0.674,0.215l4.373-2.256c0.011,0,0.02,0.006,0.028,0.006c0.013,0,0.021-0.006,0.03-0.006l4.373,2.256
			c0.073,0.039,0.151,0.057,0.229,0.057c0.181,0,0.354-0.1,0.443-0.271C41.334,30.936,41.24,30.635,40.994,30.508z"/>
	</g>
</g>
</svg>